<svg xmlns="http://www.w3.org/2000/svg" width="400" height="400" style="shape-rendering:geometricPrecision;text-rendering:geometricPrecision;image-rendering:optimizeQuality;fill-rule:evenodd;clip-rule:evenodd"><path style="opacity:.997" fill="#fefefe" d="M219.5 59.5c2.276 1.83 4.109 4.164 5.5 7a7074.398 7074.398 0 0 0 54.5 112 27520.288 27520.288 0 0 1 65 134.5c1.599 1.066 2.599 2.566 3 4.5-.457.798-1.124 1.131-2 1a12147.034 12147.034 0 0 0-251-54.5 81.819 81.819 0 0 1-3-2.5 668464.704 668464.704 0 0 0 125-198l3-4Zm-29 119a4152.542 4152.542 0 0 1 39 77 5082.886 5082.886 0 0 1-76-18.5 1813.367 1813.367 0 0 0 37-58.5Z"/><path style="opacity:.757" fill="#969696" d="m219.5 59.5-3 4a44.043 44.043 0 0 1-2-1c-2.937 2.313-6.27 3.646-10 4 4.242-3.818 9.242-6.151 15-7Z"/><path style="opacity:1" fill="#ababab" d="M216.5 63.5a668464.704 668464.704 0 0 1-125 198 55.977 55.977 0 0 1-11 8.5c-9.322 2.989-17.655 7.489-25 13.5-1.59-.128-2.923-.795-4-2 4.704-7.431 9.37-14.764 14-22a2.427 2.427 0 0 0 .5 2l19-29c.74-1.249.573-2.249-.5-3 .432-1.21 1.099-2.21 2-3a2.427 2.427 0 0 0 .5 2l32-50c.692-.937.525-1.603-.5-2a93.543 93.543 0 0 1 7-11c-.065.438.101.772.5 1a413.648 413.648 0 0 0 24.5-40 426.29 426.29 0 0 1 25-40c-.065.438.101.772.5 1a52.123 52.123 0 0 1 5.5-8c2.995-1.164 5.995-2.33 9-3.5a171.669 171.669 0 0 0 14-9.5c3.73-.354 7.063-1.687 10-4 .683.363 1.35.696 2 1Z"/><path style="opacity:.839" fill="#9d9d9d" d="M204.5 66.5a171.669 171.669 0 0 1-14 9.5c-3.005 1.17-6.005 2.336-9 3.5a52.123 52.123 0 0 0-5.5 8c-.399-.228-.565-.562-.5-1 1.144-2.947 2.811-5.613 5-8 7.81-4.5 15.81-8.5 24-12Z"/><path style="opacity:.999" fill="#c1c1c1" d="M229.5 255.5a4152.542 4152.542 0 0 0-39-77 358.959 358.959 0 0 1 26.5-43 4.934 4.934 0 0 0 .5-3h4a4078.244 4078.244 0 0 0 59 121.5 204.285 204.285 0 0 1 5 13.5 1845.238 1845.238 0 0 1-56-12Z"/><path style="opacity:.665" fill="#9e9e9e" d="M150.5 126.5a413.648 413.648 0 0 1-24.5 40c-.399-.228-.565-.562-.5-1a756.126 756.126 0 0 1 25-39Z"/><path style="opacity:.004" fill="#c7c8c7" d="M279.5 177.5c1.333.667 1.333.667 0 0Z"/><path style="opacity:.519" fill="#9c9c9c" d="M118.5 176.5c1.025.397 1.192 1.063.5 2l-32 50a2.427 2.427 0 0 1-.5-2 38568.501 38568.501 0 0 1 32-50Z"/><path style="opacity:.602" fill="#9e9e9e" d="M84.5 229.5c1.073.751 1.24 1.751.5 3l-19 29a2.427 2.427 0 0 1-.5-2 2403.984 2403.984 0 0 0 19-30Z"/><path style="opacity:.983" fill="#c9c9c9" d="M91.5 261.5c.93.815 1.93 1.648 3 2.5a12147.034 12147.034 0 0 1 251 54.5 12.93 12.93 0 0 0-5 .5c.556.383.889.883 1 1.5a316.382 316.382 0 0 1-37 18 82421.314 82421.314 0 0 1-249-55c7.345-6.011 15.678-10.511 25-13.5a55.977 55.977 0 0 0 11-8.5Z"/><path style="opacity:.075" fill="#7f7f7f" d="M345.5 318.5c-1.014 1.174-2.347 1.84-4 2-.111-.617-.444-1.117-1-1.5a12.93 12.93 0 0 1 5-.5Z"/></svg>